<svg xmlns="http://www.w3.org/2000/svg" aria-hidden="true" style="position:absolute;width:0;height:0;overflow:hidden">
  <defs>
    <symbol id="check" viewBox="0 0 32 32">
      <path d="M25.703 5.513c.526-.462 1.226-.718 1.952-.713s1.422.27 1.94.74.819 1.106.838 1.776a2.47 2.47 0 0 1-.735 1.815L14.802 26.327c-.256.255-.565.459-.909.601a3 3 0 0 1-2.19.038 2.8 2.8 0 0 1-.932-.569L.893 17.279c-.275-.237-.496-.522-.649-.839s-.235-.659-.242-1.006.063-.692.203-1.014.35-.614.616-.86.583-.439.931-.569a3 3 0 0 1 2.188.035c.343.141.653.345.909.599l7.818 7.213L25.633 5.589a1 1 0 0 1 .075-.076h-.004z"/>
    </symbol>
    <symbol id="cross" viewBox="0 0 32 32">
      <path d="M32 3.223 28.777 0 16 12.777 3.223 0 0 3.223 12.777 16 0 28.777 3.223 32 16 19.223 28.777 32 32 28.777 19.223 16z"/>
    </symbol>
    <symbol id="mail" viewBox="0 0 24 32">
      <path d="M20 8H4c-1.1 0-1.99.9-1.99 2L2 22c0 1.1.9 2 2 2h16c1.1 0 2-.9 2-2V10c0-1.1-.9-2-2-2m-.4 4.25-7.07 4.42c-.32.2-.74.2-1.06 0L4.4 12.25a.85.85 0 1 1 .9-1.44L12 15l6.7-4.19a.85.85 0 1 1 .9 1.44"/>
    </symbol>
    <symbol id="person" viewBox="0 0 32 32">
      <path d="M16 16c2.947 0 5.333-2.387 5.333-5.333S18.946 5.334 16 5.334s-5.333 2.387-5.333 5.333S13.054 16 16 16m0 2.667c-3.56 0-10.667 1.787-10.667 5.333v1.333c0 .733.6 1.333 1.333 1.333h18.667c.733 0 1.333-.6 1.333-1.333V24c0-3.547-7.107-5.333-10.667-5.333z"/>
    </symbol>
    <symbol id="tel" viewBox="0 0 24 32">
      <path d="m19.635 18.487-2.451-.28a1.92 1.92 0 0 0-1.582.55l-1.775 1.775a14.5 14.5 0 0 1-6.359-6.359l1.785-1.785c.415-.415.618-.994.55-1.582l-.28-2.432a1.93 1.93 0 0 0-1.92-1.708H5.934c-1.09 0-1.997.907-1.93 1.997.511 8.24 7.102 14.821 15.332 15.332 1.09.068 1.997-.839 1.997-1.93v-1.669a1.913 1.913 0 0 0-1.698-1.911z"/>
    </symbol>
    <symbol id="telegram" viewBox="0 0 32 32">
      <path d="m32 2.667-32 15 10.227 3.156L26 8.5 14.002 21.988l.01.003-.012-.003v7.345l5.735-5.576L27 25.999z"/>
    </symbol>
  </defs>
</svg>
